<svg width="120" height="28" viewBox="0 0 120 28" fill="none" xmlns="http://www.w3.org/2000/svg">
<path d="M28.9107 6.7666H31.6799V20.2533H28.9107V6.7666Z" fill="#737680"/>
<path d="M33.2308 15.6334C33.2308 14.6631 33.5157 13.7145 34.0494 12.9081C34.5832 12.1017 35.3417 11.4738 36.2288 11.1037C37.116 10.7336 38.0918 10.6382 39.0326 10.8297C39.9734 11.021 40.8368 11.4905 41.5134 12.1785C42.1901 12.8666 42.6495 13.7423 42.8333 14.6947C43.0171 15.647 42.9173 16.6331 42.5462 17.5279C42.1751 18.4228 41.5497 19.1862 40.7491 19.7212C39.9486 20.2563 39.0089 20.5389 38.0492 20.5334C37.4128 20.5384 36.7817 20.4148 36.193 20.17C35.6043 19.9252 35.0699 19.564 34.6211 19.1076C34.1723 18.6513 33.8182 18.1088 33.5794 17.5122C33.3407 16.9157 33.2221 16.2769 33.2308 15.6334ZM40.1723 15.6334C40.1614 15.215 40.0288 14.8092 39.791 14.4667C39.5532 14.1242 39.2208 13.8602 38.8354 13.7077C38.45 13.5552 38.0287 13.5209 37.6242 13.6092C37.2197 13.6976 36.8499 13.9045 36.561 14.2042C36.2722 14.504 36.0772 14.8831 36.0004 15.2944C35.9236 15.7055 35.9683 16.1305 36.1291 16.5161C36.2899 16.9017 36.5596 17.2308 36.9043 17.4622C37.2492 17.6937 37.6538 17.8172 38.0677 17.8174C38.3494 17.8229 38.6294 17.7696 38.8899 17.6608C39.1504 17.5521 39.3858 17.3902 39.5816 17.1851C39.7774 16.9802 39.9293 16.7366 40.0278 16.4695C40.1262 16.2026 40.1691 15.9178 40.1538 15.6334H40.1723Z" fill="#737680"/>
<path d="M53.8246 11.0135V19.7961C53.8246 22.8948 51.4246 24.2108 48.9969 24.2108C48.1407 24.2818 47.2818 24.1098 46.5169 23.7141C45.752 23.3183 45.1116 22.7146 44.6677 21.9708L47.0031 20.6081C47.1924 20.9939 47.4934 21.3122 47.8661 21.5206C48.2388 21.729 48.6654 21.8177 49.0892 21.7748C49.3592 21.8084 49.6332 21.7813 49.8917 21.6954C50.15 21.6095 50.3864 21.4669 50.5841 21.2779C50.7816 21.0888 50.9354 20.858 51.0344 20.6018C51.1335 20.3457 51.1753 20.0705 51.1569 19.7961V18.9468C50.8347 19.3419 50.4258 19.6555 49.9627 19.8629C49.4996 20.0702 48.9952 20.1656 48.4892 20.1414C47.2651 20.1414 46.0913 19.6498 45.2257 18.7746C44.3601 17.8994 43.8738 16.7125 43.8738 15.4748C43.8738 14.2371 44.3601 13.0501 45.2257 12.175C46.0913 11.2998 47.2651 10.8081 48.4892 10.8081C48.9952 10.7839 49.4996 10.8793 49.9627 11.0867C50.4258 11.294 50.8347 11.6077 51.1569 12.0028V11.0694L53.8246 11.0135ZM51.1569 15.4468C51.1754 15.0003 51.0613 14.5583 50.8293 14.1779C50.5974 13.7975 50.2581 13.4959 49.8553 13.312C49.4525 13.128 49.0044 13.0701 48.5687 13.1457C48.1331 13.2213 47.7298 13.427 47.4106 13.7362C47.0915 14.0454 46.8712 14.4441 46.7779 14.881C46.6847 15.3178 46.7228 15.7729 46.8875 16.1877C47.0521 16.6024 47.3357 16.9579 47.7018 17.2085C48.0678 17.459 48.4996 17.5931 48.9415 17.5935C49.23 17.6145 49.5196 17.574 49.7916 17.4749C50.0636 17.3757 50.312 17.2199 50.5208 17.0176C50.7295 16.8153 50.894 16.571 51.0036 16.3004C51.1133 16.0298 51.1654 15.739 51.1569 15.4468Z" fill="#737680"/>
<path d="M55.3846 15.6334C55.3846 14.6639 55.669 13.7162 56.202 12.9101C56.7349 12.1041 57.4923 11.4761 58.3783 11.1055C59.2644 10.7349 60.2393 10.6384 61.1796 10.8282C62.1199 11.0181 62.9834 11.4857 63.6607 12.1719C64.3382 12.8581 64.799 13.7321 64.9849 14.6832C65.1709 15.6343 65.0736 16.6199 64.7054 17.515C64.3372 18.4103 63.7146 19.1749 62.9164 19.7122C62.1183 20.2494 61.1804 20.5353 60.2215 20.5334C59.5838 20.5397 58.9513 20.4171 58.3611 20.173C57.7709 19.9288 57.2347 19.568 56.7842 19.1116C56.3337 18.6552 55.9779 18.1124 55.7375 17.5152C55.4972 16.918 55.3772 16.2782 55.3846 15.6334ZM62.3262 15.6334C62.3153 15.2147 62.1823 14.8085 61.9442 14.4658C61.7059 14.1232 61.3731 13.8591 60.9871 13.7069C60.6012 13.5547 60.1794 13.521 59.7747 13.6101C59.3698 13.6992 59.0001 13.9071 58.7117 14.2077C58.4232 14.5084 58.2289 14.8884 58.1531 15.3002C58.0774 15.712 58.1235 16.1372 58.2857 16.5226C58.4478 16.9081 58.719 17.2365 59.0649 17.4669C59.411 17.6971 59.8165 17.8191 60.2308 17.8174C60.5125 17.8229 60.7925 17.7697 61.053 17.6609C61.3134 17.5522 61.5489 17.3902 61.7447 17.1853C61.9405 16.9802 62.0923 16.7366 62.1908 16.4697C62.2892 16.2027 62.3322 15.918 62.3169 15.6334H62.3262Z" fill="#737680"/>
<path d="M66.3415 8.54C66.3415 8.21142 66.4379 7.89021 66.6185 7.61701C66.799 7.3438 67.0556 7.13086 67.3558 7.00512C67.6561 6.87938 67.9865 6.84648 68.3052 6.91058C68.6238 6.97469 68.9166 7.13291 69.1464 7.36526C69.3762 7.59759 69.5327 7.89362 69.5961 8.21588C69.6595 8.53815 69.627 8.87219 69.5026 9.17576C69.3783 9.4793 69.1676 9.73877 68.8974 9.92133C68.6273 10.1039 68.3095 10.2013 67.9846 10.2013C67.5503 10.1965 67.1352 10.0199 66.8281 9.70937C66.521 9.39885 66.3463 8.9791 66.3415 8.54ZM66.6092 11.0133H69.3785V20.2533H66.6092V11.0133Z" fill="#737680"/>
<path d="M81.2308 15.6334C81.2618 16.2479 81.1723 16.8625 80.9675 17.442C80.7627 18.0214 80.4466 18.5541 80.0373 19.0096C79.6281 19.465 79.1339 19.8341 78.583 20.0956C78.0322 20.3571 77.4356 20.5059 76.8277 20.5334C76.3118 20.5682 75.7948 20.4845 75.3153 20.289C74.8358 20.0935 74.4062 19.791 74.0585 19.4041V23.9681H71.2892V11.0134H74.0585V11.8814C74.4066 11.4957 74.8366 11.1945 75.3161 11.0006C75.7957 10.8066 76.3124 10.7248 76.8277 10.7614C77.4331 10.789 78.0273 10.9369 78.5764 11.1966C79.1253 11.4564 79.6183 11.8229 80.0272 12.2754C80.436 12.7278 80.7528 13.2572 80.9593 13.8333C81.1658 14.4096 81.258 15.0212 81.2308 15.6334ZM78.4615 15.6334C78.4506 15.1999 78.3134 14.7793 78.0671 14.4244C77.8207 14.0694 77.4763 13.7958 77.0769 13.638C76.6775 13.48 76.2408 13.4449 75.8217 13.5369C75.4026 13.6288 75.0197 13.8439 74.721 14.1549C74.4222 14.466 74.2208 14.8593 74.1422 15.2856C74.0636 15.7119 74.1112 16.1522 74.279 16.5512C74.4467 16.9503 74.7273 17.2904 75.0855 17.5289C75.4436 17.7674 75.8634 17.8938 76.2923 17.8921C76.586 17.9047 76.8791 17.8544 77.1522 17.7444C77.4254 17.6345 77.6725 17.4673 77.8773 17.2541C78.0822 17.0408 78.2401 16.7862 78.3408 16.5069C78.4414 16.2276 78.4826 15.93 78.4615 15.6334Z" fill="#737680"/>
<path d="M89.6585 17.4814C89.6585 19.6094 87.8123 20.5147 85.8554 20.5147C85.0572 20.5873 84.2559 20.4163 83.5549 20.0236C82.8539 19.6309 82.2855 19.0347 81.9231 18.3121L84.3046 16.9494C84.399 17.2824 84.6035 17.5726 84.8841 17.7714C85.1647 17.9702 85.5043 18.0655 85.8462 18.0414C86.5015 18.0414 86.8338 17.8361 86.8338 17.4627C86.8338 16.4454 82.3385 16.9867 82.3385 13.7854C82.3385 11.7694 84.0185 10.7614 85.92 10.7614C86.6428 10.7286 87.3609 10.8945 87.9979 11.2412C88.6351 11.5879 89.1674 12.1027 89.5385 12.7307L87.1569 14.0001C87.0517 13.7593 86.8798 13.5544 86.662 13.4104C86.444 13.2663 86.1895 13.189 85.9292 13.1881C85.4492 13.1881 85.1631 13.3747 85.1631 13.7014C85.1631 14.7654 89.6585 14.0654 89.6585 17.4814Z" fill="#737680"/>
<path d="M99.6923 11.0134V20.2534H96.9231V19.3854C96.6083 19.7696 96.2086 20.0737 95.7572 20.2731C95.3049 20.4725 94.8129 20.5617 94.32 20.5334C92.4738 20.5334 90.8954 19.1988 90.8954 16.7068V11.0134H93.6646V16.2868C93.6425 16.5072 93.6683 16.7298 93.7403 16.9393C93.8123 17.1486 93.9277 17.3397 94.0791 17.4995C94.2314 17.6592 94.416 17.7837 94.62 17.8644C94.824 17.9451 95.0428 17.98 95.2615 17.9668C96.2585 17.9668 96.96 17.3694 96.96 16.1001V11.0134H99.6923Z" fill="#737680"/>
<path d="M115.385 14.5788V20.2535H112.615V14.8215C112.615 13.8881 112.182 13.3095 111.305 13.3095C110.428 13.3095 109.874 13.9535 109.874 15.0455V20.2535H107.105V14.8215C107.105 13.8881 106.671 13.3095 105.794 13.3095C104.917 13.3095 104.363 13.9535 104.363 15.0455V20.2535H101.594V11.0135H104.363V11.8628C104.65 11.4876 105.024 11.1904 105.453 10.9981C105.882 10.8059 106.351 10.7245 106.818 10.7615C107.286 10.7368 107.754 10.8357 108.173 11.0484C108.592 11.2611 108.949 11.5804 109.209 11.9748C109.514 11.5627 109.916 11.2352 110.38 11.0231C110.842 10.8108 111.352 10.7209 111.858 10.7615C114.018 10.7615 115.385 12.2735 115.385 14.5788Z" fill="#737680"/>
<path d="M12.4155 4.33995V0.373291H0.046196V27.6266H12.4155V23.6599C9.88163 23.6599 7.45154 22.6422 5.65983 20.8306C3.86814 19.019 2.86158 16.5619 2.86158 13.9999C2.86158 11.4379 3.86814 8.98091 5.65983 7.16931C7.45154 5.35771 9.88163 4.33995 12.4155 4.33995Z" fill="#737680"/>
<path d="M12.4154 4.34009V23.6601C14.9491 23.6601 17.3792 22.6424 19.1709 20.8308C20.9626 19.0192 21.9691 16.5621 21.9691 14.0001C21.9691 11.4381 20.9626 8.98104 19.1709 7.16944C17.3792 5.35784 14.9491 4.34009 12.4154 4.34009Z" fill="#737680"/>
<path d="M117.711 10.9572C118.832 10.9572 119.742 10.038 119.742 8.90392C119.742 7.76989 118.832 6.85059 117.711 6.85059C116.589 6.85059 115.68 7.76989 115.68 8.90392C115.68 10.038 116.589 10.9572 117.711 10.9572Z" fill="#737680"/>
</svg>
