<svg width="120" height="28" viewBox="0 0 120 28" fill="none" xmlns="http://www.w3.org/2000/svg">
<path d="M34.2281 8.64267H37.2375V20.776H34.2281V8.64267ZM38.4375 16.212C38.4375 13.2067 40.3125 11.4053 43.125 11.4053C45.9375 11.4053 47.8125 13.2067 47.8125 16.212C47.8125 19.2174 46.0031 21.0373 43.125 21.0373C40.2469 21.0373 38.4375 19.2827 38.4375 16.212ZM44.8312 16.212C44.8312 14.56 44.1844 13.5893 43.1531 13.5893C42.1219 13.5893 41.4844 14.5227 41.4844 16.212C41.4844 17.9013 42.1219 18.8253 43.1531 18.8253C44.1844 18.8253 44.85 17.9013 44.85 16.2213L44.8312 16.212ZM49.0125 21.4013H51.9187C52.051 21.7128 52.2821 21.9727 52.5767 22.1412C52.8712 22.3098 53.2131 22.3777 53.55 22.3347C54.7031 22.3347 55.3031 21.7187 55.3031 20.804V19.124H55.3125C55.0642 19.6471 54.6625 20.0831 54.1606 20.3747C53.6586 20.6663 53.0797 20.7996 52.5 20.7573C50.2969 20.7573 48.8344 19.0867 48.8344 16.212C48.8344 13.3373 50.2312 11.5453 52.5844 11.5453C53.1788 11.5137 53.7686 11.6663 54.2722 11.9822C54.776 12.2982 55.1689 12.7619 55.3969 13.3093H55.3125V11.62H58.2937V20.7107C58.2937 22.904 56.3437 24.276 53.475 24.276C50.8687 24.2667 49.2 23.0813 49.0312 21.4107L49.0125 21.4013ZM55.3125 16.212C55.3125 14.7467 54.6375 13.8227 53.5687 13.8227C52.5 13.8227 51.8437 14.756 51.8437 16.212C51.8437 17.668 52.4906 18.5267 53.5687 18.5267C54.6469 18.5267 55.3125 17.7333 55.3125 16.212ZM59.4844 16.212C59.4844 13.2067 61.3594 11.4053 64.1719 11.4053C66.9844 11.4053 68.8594 13.2067 68.8594 16.212C68.8594 19.2174 67.0406 21.0373 64.1719 21.0373C61.3031 21.0373 59.5031 19.2827 59.5031 16.212H59.4844ZM65.8781 16.212C65.8781 14.56 65.2219 13.5893 64.2 13.5893C63.1781 13.5893 62.5312 14.5227 62.5312 16.212C62.5312 17.9013 63.1688 18.8253 64.2 18.8253C65.2313 18.8253 65.8969 17.9013 65.8969 16.2213L65.8781 16.212ZM70.0781 9.40802C70.065 9.10282 70.1439 8.80072 70.3047 8.54057C70.4655 8.2804 70.7008 8.07409 70.9804 7.94815C71.2599 7.82222 71.5709 7.78243 71.8733 7.8339C72.1758 7.88538 72.4558 8.02576 72.6774 8.23699C72.8991 8.44823 73.0522 8.72065 73.117 9.01921C73.1818 9.31777 73.1555 9.62884 73.0413 9.9123C72.9271 10.1958 72.7303 10.4389 72.4762 10.6101C72.2222 10.7814 71.9225 10.8731 71.6156 10.8733C71.4196 10.8783 71.2244 10.8444 71.0416 10.7738C70.8588 10.703 70.6918 10.5968 70.5505 10.4614C70.4092 10.3259 70.2964 10.1639 70.2186 9.98463C70.1407 9.80543 70.0993 9.6126 70.0969 9.41735L70.0781 9.40802ZM70.0781 11.6107H73.125V20.8133H70.125L70.0781 11.6107ZM84.0844 16.212C84.0844 19.208 82.7344 20.944 80.4375 20.944C79.8495 20.9801 79.2645 20.8357 78.7615 20.5303C78.2586 20.2248 77.8619 19.7731 77.625 19.236H77.5687V23.772H74.5594V11.6387H77.55V13.2813H77.6062C77.835 12.7338 78.2278 12.2696 78.7311 11.9523C79.2344 11.6349 79.8237 11.4798 80.4187 11.508C82.7812 11.4893 84.1406 13.216 84.1406 16.2213L84.0844 16.212ZM81.0187 16.212C81.0187 14.756 80.3344 13.8133 79.275 13.8133C78.2156 13.8133 77.55 14.7467 77.5406 16.212C77.5312 17.6773 78.2156 18.6013 79.275 18.6013C80.3344 18.6013 81.075 17.7333 81.075 16.2213L81.0187 16.212ZM89.2219 11.396C91.7437 11.396 93.3094 12.5813 93.3281 14.4853H90.5813C90.5813 13.8227 90.0281 13.412 89.2031 13.412C88.3781 13.412 87.9844 13.7293 87.9844 14.2053C87.9844 14.6813 88.3312 14.8307 89.025 14.9707L90.9562 15.3627C92.8312 15.7547 93.5812 16.5013 93.5812 17.892C93.5812 19.7587 91.8469 21.028 89.2687 21.028C86.6906 21.028 85.0125 19.796 84.8906 17.92H87.8063C87.8906 18.6013 88.4344 19.0027 89.3156 19.0027C90.1969 19.0027 90.6094 18.7227 90.6094 18.228C90.6094 17.7333 90.3281 17.6493 89.6063 17.5L87.8625 17.136C86.0531 16.7533 85.1062 15.8107 85.1062 14.4013C85.1625 12.572 86.7375 11.4053 89.2781 11.4053L89.2219 11.396ZM103.659 20.804H100.744V19.0773H100.688C100.524 19.6533 100.169 20.1567 99.6797 20.5044C99.1903 20.8523 98.5969 21.0237 97.9969 20.9907C97.5441 21.0053 97.0922 20.9245 96.6731 20.7533C96.2541 20.5823 95.8753 20.3247 95.5631 19.9978C95.25 19.6708 95.0109 19.2817 94.86 18.8561C94.7091 18.4305 94.65 17.9778 94.6875 17.528V11.62H97.6969V16.884C97.6969 17.9667 98.2687 18.5547 99.2062 18.5547C99.4266 18.553 99.6431 18.5044 99.8428 18.4122C100.042 18.3199 100.22 18.186 100.362 18.0197C100.506 17.8534 100.612 17.6584 100.673 17.448C100.733 17.2376 100.747 17.0166 100.716 16.8V11.62H103.716L103.659 20.804ZM105.112 11.6107H108.037V13.384H108.103C108.264 12.8159 108.611 12.3172 109.088 11.9659C109.565 11.6147 110.145 11.4306 110.738 11.4427C111.333 11.3912 111.926 11.5625 112.401 11.9233C112.876 12.284 113.198 12.8082 113.306 13.3933H113.438C113.625 12.8051 114.002 12.2949 114.511 11.9422C115.019 11.5894 115.631 11.4138 116.25 11.4427C116.662 11.4271 117.072 11.4982 117.454 11.6514C117.836 11.8044 118.181 12.0362 118.467 12.3314C118.753 12.6265 118.972 12.9785 119.112 13.3641C119.253 13.7498 119.309 14.1605 119.278 14.5693V20.8133H116.25V15.3347C116.25 14.4013 115.809 13.8787 114.956 13.8787C114.767 13.8756 114.579 13.9133 114.406 13.9891C114.232 14.065 114.079 14.1773 113.953 14.3182C113.828 14.4592 113.734 14.6254 113.678 14.8058C113.624 14.9861 113.609 15.176 113.634 15.3627V20.8133H110.766V15.3067C110.766 14.3733 110.306 13.8787 109.481 13.8787C109.29 13.8772 109.101 13.9164 108.926 13.9937C108.751 14.071 108.595 14.1846 108.468 14.327C108.341 14.4693 108.247 14.637 108.19 14.8188C108.133 15.0007 108.116 15.1925 108.141 15.3813V20.8133H105.131L105.112 11.6107Z" fill="#737680"/>
<path d="M28.275 9.43592C28.2751 7.57828 27.7117 5.76393 26.6585 4.23052C25.6053 2.69711 24.1114 1.51612 22.3726 0.842249C20.6338 0.168377 18.7311 0.0330421 16.9137 0.453968C15.0963 0.874894 13.449 1.83245 12.1875 3.20122H0.487518V27.7853H25.1906V16.2959C26.1602 15.4325 26.9361 14.3753 27.4675 13.1933C27.999 12.0113 28.2742 10.7309 28.275 9.43592ZM23.5219 9.43592C23.5238 10.326 23.2603 11.1967 22.7649 11.9377C22.2695 12.6788 21.5645 13.2568 20.7389 13.5988C19.9133 13.9407 19.0045 14.0311 18.1273 13.8586C17.2502 13.686 16.4441 13.2584 15.8112 12.6296C15.1783 12.0008 14.7471 11.1993 14.5719 10.3263C14.3968 9.45337 14.4858 8.54839 14.8275 7.72583C15.1692 6.90325 15.7484 6.20011 16.4917 5.70538C17.235 5.21064 18.109 4.94657 19.0031 4.94656C20.1999 4.94656 21.3479 5.41924 22.195 6.26089C23.0422 7.10253 23.5194 8.24439 23.5219 9.43592ZM20.4375 23.0533H5.24064V7.93322H9.87187C9.78244 8.42926 9.73537 8.93195 9.73125 9.43592C9.73378 11.8833 10.7114 14.2297 12.4497 15.9602C14.1879 17.6908 16.5448 18.6641 19.0031 18.6666C19.4838 18.6641 19.9634 18.6235 20.4375 18.5453V23.0533Z" fill="#737680"/>
</svg>
