<svg width="120" height="28" viewBox="0 0 120 28" fill="none" xmlns="http://www.w3.org/2000/svg">
<path d="M34.87 8.06994H37.87V20.1999H34.87V8.06994ZM39.06 15.6199C39.06 12.6199 40.9 10.8299 43.74 10.8299C46.58 10.8299 48.42 12.6199 48.42 15.6199C48.42 18.6199 46.62 20.4199 43.74 20.4199C40.86 20.4199 39.06 18.6699 39.06 15.6199ZM45.41 15.6199C45.41 13.9699 44.76 12.9999 43.74 12.9999C42.72 12.9999 42.08 13.9999 42.08 15.6199C42.08 17.2399 42.71 18.2199 43.74 18.2199C44.77 18.2199 45.41 17.2999 45.41 15.6299V15.6199ZM49.55 20.7899H52.43C52.5671 21.0944 52.7988 21.3465 53.0907 21.5087C53.3826 21.6708 53.7191 21.7344 54.05 21.6899C55.19 21.6899 55.79 21.0699 55.79 20.1699V18.4899H55.73C55.491 19.0048 55.1031 19.4362 54.6165 19.7286C54.1299 20.0209 53.5668 20.1607 53 20.1299C50.81 20.1299 49.36 18.4599 49.36 15.5899C49.36 12.7199 50.74 10.9099 53.04 10.9099C53.6246 10.887 54.2022 11.0433 54.6955 11.3578C55.1888 11.6724 55.5742 12.1302 55.8 12.6699V10.9999H58.8V20.0999C58.8 22.2899 56.87 23.6499 54.02 23.6499C51.37 23.6499 49.72 22.4599 49.55 20.7999V20.7899ZM55.8 15.6099C55.8 14.1499 55.13 13.2299 54.07 13.2299C53.01 13.2299 52.36 14.1399 52.36 15.6099C52.36 17.0799 53 17.9099 54.07 17.9099C55.14 17.9099 55.8 17.0999 55.8 15.6199V15.6099ZM59.93 15.6099C59.93 12.6099 61.77 10.8199 64.61 10.8199C67.45 10.8199 69.3 12.6099 69.3 15.6099C69.3 18.6099 67.5 20.4099 64.61 20.4099C61.72 20.4099 59.93 18.6699 59.93 15.6199V15.6099ZM66.28 15.6099C66.28 13.9599 65.63 12.9899 64.61 12.9899C63.59 12.9899 63 13.9999 63 15.6299C63 17.2599 63.63 18.2299 64.65 18.2299C65.67 18.2299 66.28 17.2999 66.28 15.6299V15.6099ZM70.44 8.81994C70.4321 8.51705 70.5144 8.21864 70.6763 7.96255C70.8383 7.70645 71.0726 7.50421 71.3496 7.38145C71.6266 7.25869 71.9338 7.22094 72.2323 7.27299C72.5308 7.32505 72.8071 7.46456 73.0262 7.67383C73.2454 7.88311 73.3974 8.15274 73.4631 8.44853C73.5288 8.74432 73.5052 9.05295 73.3952 9.3353C73.2853 9.61766 73.094 9.86102 72.8456 10.0345C72.5973 10.208 72.3029 10.3039 72 10.3099C71.7992 10.3237 71.5977 10.2958 71.4082 10.228C71.2186 10.1602 71.0452 10.054 70.8987 9.91595C70.7522 9.7779 70.6358 9.61105 70.5569 9.42588C70.4779 9.24071 70.4381 9.04122 70.44 8.83994V8.81994ZM70.44 11.0199H73.44V20.1999H70.44V11.0199ZM84.33 15.6099C84.33 18.6099 83 20.3199 80.72 20.3199C80.1354 20.3574 79.5533 20.2145 79.0525 19.9105C78.5517 19.6064 78.1564 19.1559 77.92 18.6199H77.86V23.1399H74.86V10.9999H77.86V12.6399H77.92C78.1454 12.095 78.5332 11.6328 79.0306 11.3161C79.528 10.9994 80.1109 10.8436 80.7 10.8699C83 10.9099 84.37 12.6299 84.37 15.6299L84.33 15.6099ZM81.33 15.6099C81.33 14.1499 80.66 13.2199 79.61 13.2199C78.56 13.2199 77.89 14.1599 77.88 15.6099C77.87 17.0599 78.56 17.9899 79.61 17.9899C80.66 17.9899 81.33 17.0799 81.33 15.6299V15.6099ZM89.48 10.8099C91.97 10.8099 93.48 11.9899 93.55 13.8799H90.82C90.82 13.2299 90.28 12.8199 89.45 12.8199C88.62 12.8199 88.25 13.1399 88.25 13.6099C88.25 14.0799 88.58 14.2299 89.25 14.3699L91.17 14.7599C93 15.1499 93.78 15.8899 93.78 17.2799C93.78 19.1799 92.05 20.3999 89.5 20.3999C86.95 20.3999 85.28 19.1799 85.15 17.3099H88.04C88.13 17.9899 88.67 18.3899 89.55 18.3899C90.43 18.3899 90.83 18.0999 90.83 17.6199C90.83 17.1399 90.55 17.0399 89.83 16.8899L88.1 16.5199C86.31 16.1499 85.37 15.1999 85.37 13.7999C85.39 11.9999 87 10.8299 89.48 10.8299V10.8099ZM103.79 20.1799H100.9V18.4699H100.84C100.681 19.044 100.331 19.5465 99.8468 19.894C99.3629 20.2414 98.7748 20.4129 98.18 20.3799C97.7242 20.4058 97.2682 20.3336 96.8427 20.1681C96.4172 20.0026 96.0322 19.7478 95.7137 19.4207C95.3952 19.0937 95.1505 18.702 94.9964 18.2723C94.8422 17.8426 94.7821 17.3848 94.82 16.9299V10.9999H97.82V16.2399C97.82 17.3299 98.38 17.9099 99.31 17.9099C99.5281 17.9103 99.7437 17.8642 99.9425 17.7745C100.141 17.6848 100.319 17.5536 100.463 17.3898C100.606 17.2259 100.714 17.0332 100.777 16.8246C100.84 16.6159 100.859 16.3961 100.83 16.1799V10.9999H103.83L103.79 20.1799ZM105.24 10.9999H108.14V12.7699H108.2C108.359 12.2034 108.702 11.7056 109.174 11.3546C109.646 11.0036 110.222 10.819 110.81 10.8299C111.409 10.782 112.003 10.9611 112.476 11.3317C112.948 11.7023 113.264 12.2371 113.36 12.8299H113.42C113.601 12.2308 113.977 11.7092 114.488 11.3471C114.998 10.985 115.615 10.803 116.24 10.8299C116.648 10.8162 117.054 10.8885 117.432 11.0421C117.811 11.1956 118.152 11.4271 118.435 11.7213C118.718 12.0156 118.936 12.3661 119.075 12.75C119.213 13.1339 119.27 13.5428 119.24 13.9499V20.1999H116.24V14.7499C116.24 13.7499 115.79 13.2899 114.95 13.2899C114.763 13.2883 114.577 13.3269 114.406 13.4031C114.235 13.4793 114.082 13.5913 113.958 13.7316C113.834 13.8719 113.741 14.0371 113.686 14.2162C113.631 14.3954 113.616 14.5842 113.64 14.7699V20.1999H110.79V14.7099C110.79 13.7899 110.34 13.2899 109.52 13.2899C109.331 13.29 109.143 13.3302 108.971 13.4079C108.798 13.4857 108.643 13.5992 108.518 13.7409C108.392 13.8826 108.298 14.0494 108.241 14.2303C108.185 14.4111 108.167 14.6018 108.19 14.7899V20.1999H105.19L105.24 10.9999Z" fill="#737680"/>
<path d="M26.48 8.62013C25.9711 7.45649 25.2975 6.37207 24.48 5.40013C23.2714 3.92047 21.7632 2.71353 20.0546 1.85874C18.346 1.00395 16.4758 0.520704 14.567 0.440796C12.6582 0.360888 10.7541 0.686132 8.98 1.39512C7.20594 2.10412 5.60214 3.18079 4.27417 4.55426C2.94619 5.92774 1.92414 7.56688 1.27529 9.36381C0.626436 11.1607 0.365493 13.0747 0.509634 14.9797C0.653775 16.8848 1.19973 18.7377 2.11157 20.4165C3.02341 22.0954 4.28046 23.5621 5.79998 24.7201C6.77498 25.478 7.85233 26.0941 8.99998 26.5501C10.609 27.2095 12.3311 27.5491 14.07 27.5501C17.6594 27.5422 21.0992 26.1114 23.6354 23.5714C26.1717 21.0315 27.5973 17.5895 27.6 14.0001C27.6026 12.1486 27.2213 10.3167 26.48 8.62013ZM14.06 3.19013C15.6215 3.18996 17.1642 3.53127 18.58 4.19013C18.2347 4.3393 17.8718 4.44349 17.5 4.50013C16.2766 4.67723 15.1432 5.24521 14.2691 6.1193C13.3951 6.9934 12.8271 8.12673 12.65 9.35013C12.5722 10.0362 12.2602 10.6745 11.7665 11.1573C11.2728 11.6401 10.6277 11.9378 9.93998 12.0001C8.71657 12.1772 7.58324 12.7452 6.70915 13.6193C5.83505 14.4934 5.26707 15.6267 5.08998 16.8501C5.03002 17.5025 4.75167 18.1156 4.29998 18.5901C3.52063 16.9434 3.17053 15.1262 3.28225 13.3078C3.39397 11.4894 3.96388 9.72883 4.93895 8.18988C5.91401 6.65093 7.26255 5.38365 8.85905 4.50598C10.4555 3.62831 12.2481 3.16877 14.07 3.17013L14.06 3.19013ZM5.78998 21.0001C5.90998 20.8901 6.02998 20.7901 6.14998 20.6701C7.03963 19.8076 7.61069 18.669 7.76998 17.4401C7.83456 16.7494 8.14298 16.1042 8.63998 15.6201C9.11822 15.1223 9.76195 14.8164 10.45 14.7601C11.6734 14.583 12.8067 14.015 13.6808 13.1409C14.5549 12.2668 15.1229 11.1335 15.3 9.91013C15.3432 9.18764 15.6533 8.50697 16.17 8.00013C16.66 7.51198 17.3099 7.21723 18 7.17013C19.1239 7.01549 20.1721 6.51585 21 5.74013C21.9426 6.5222 22.7413 7.46303 23.36 8.52013C23.322 8.57148 23.2784 8.61844 23.23 8.66013C22.7526 9.16233 22.1098 9.47489 21.42 9.54013C20.1953 9.71413 19.0603 10.2811 18.1856 11.1558C17.311 12.0304 16.744 13.1655 16.57 14.3901C16.4995 15.0785 16.1932 15.7214 15.7029 16.2099C15.2127 16.6983 14.5687 17.0022 13.88 17.0701C12.653 17.2459 11.5154 17.8127 10.6363 18.6864C9.75713 19.5602 9.18328 20.6942 8.99998 21.9201C8.94616 22.4088 8.77832 22.8781 8.50998 23.2901C7.48397 22.6809 6.56506 21.9073 5.78998 21.0001ZM14.06 24.8601C13.0452 24.8612 12.0354 24.7198 11.06 24.4401C11.3936 23.8181 11.6106 23.1403 11.7 22.4401C11.7701 21.7532 12.0749 21.1115 12.5632 20.6233C13.0514 20.1351 13.6931 19.8302 14.38 19.7601C15.6052 19.585 16.7408 19.0179 17.6168 18.1436C18.4929 17.2694 19.0624 16.135 19.24 14.9101C19.3101 14.2232 19.6149 13.5815 20.1032 13.0933C20.5914 12.6051 21.2331 12.3002 21.92 12.2301C22.842 12.1102 23.7208 11.7669 24.48 11.2301C24.9015 12.828 24.9515 14.5013 24.626 16.1215C24.3004 17.7417 23.6081 19.2658 22.6021 20.5769C21.5961 21.888 20.3031 22.9512 18.8224 23.685C17.3417 24.4188 15.7125 24.8037 14.06 24.8101V24.8601Z" fill="#737680"/>
</svg>
