<svg width="120" height="25" viewBox="0 0 120 25" fill="none" xmlns="http://www.w3.org/2000/svg">
<path d="M18.0168 11.0455C17.6823 11.386 17.4263 11.7969 17.2668 12.2488C17.1072 12.7009 17.0482 13.183 17.0938 13.6607L17.0779 13.6447C17.1249 14.2071 17.05 14.773 16.8584 15.303C16.6668 15.833 16.3632 16.3144 15.9689 16.7135C15.5745 17.1125 15.0988 17.4197 14.575 17.6136C14.0512 17.8074 13.492 17.8832 12.9362 17.8357L12.952 17.8518C12.2873 17.7892 11.6196 17.9355 11.0401 18.271C10.4605 18.6064 9.99731 19.1146 9.71355 19.7262C9.42987 20.3378 9.33952 21.023 9.45475 21.6885C9.56999 22.3539 9.88525 22.9672 10.3576 23.4447C10.8299 23.9222 11.4363 24.2407 12.094 24.3567C12.7518 24.4728 13.4289 24.3807 14.0329 24.093C14.6371 23.8055 15.1389 23.3363 15.4698 22.7495C15.8008 22.1627 15.9448 21.487 15.8823 20.8143L15.8991 20.8304C15.8523 20.268 15.9272 19.7021 16.1187 19.1721C16.3103 18.642 16.6138 18.1606 17.0082 17.7615C17.4025 17.3625 17.8782 17.0554 18.4021 16.8615C18.9258 16.6677 19.4852 16.5918 20.0409 16.6393L20.0241 16.6232C20.5672 16.6727 21.1137 16.5826 21.6132 16.3613C22.1127 16.14 22.5489 15.7948 22.8813 15.3575C23.2139 14.9203 23.4319 14.4051 23.5153 13.8599C23.5987 13.3147 23.5447 12.757 23.3583 12.2385C23.1719 11.7199 22.8593 11.2574 22.4493 10.8938C22.0392 10.5301 21.545 10.2772 21.0126 10.1581C20.4802 10.0392 19.9268 10.0581 19.4035 10.2133C18.8803 10.3684 18.4042 10.6547 18.0194 11.0455H18.0168Z" fill="#737680"/>
<path d="M11.5077 15.7463L11.4909 15.7303C11.9633 15.7784 12.4403 15.7197 12.8875 15.5585C13.3347 15.3972 13.7409 15.1375 14.0767 14.7979C14.4125 14.4584 14.6696 14.0475 14.8293 13.5951C14.989 13.1427 15.0473 12.6601 15 12.182L15.0168 12.1981C14.9699 11.6357 15.0448 11.0698 15.2364 10.5397C15.4279 10.0097 15.7315 9.52838 16.1259 9.12928C16.5202 8.73023 16.9959 8.42307 17.5197 8.22923C18.0435 8.0354 18.6028 7.95957 19.1585 8.00704L19.1418 7.99097C19.8066 8.05415 20.4746 7.90826 21.0544 7.5732C21.6343 7.23815 22.0979 6.73023 22.382 6.11874C22.6662 5.50726 22.757 4.82196 22.6421 4.15633C22.5272 3.4907 22.2122 2.87714 21.74 2.39934C21.2678 1.92154 20.6614 1.60276 20.0037 1.48649C19.3459 1.37021 18.6687 1.4621 18.0643 1.74961C17.4601 2.03712 16.9581 2.50628 16.627 3.09307C16.2959 3.67986 16.1517 4.35572 16.2141 5.02847L16.1982 5.01151C16.2454 5.57391 16.1705 6.13993 15.979 6.67003C15.7875 7.20014 15.484 7.68156 15.0896 8.08066C14.6952 8.47977 14.2194 8.78694 13.6955 8.9807C13.1717 9.17446 12.6123 9.25017 12.0565 9.20258L12.0724 9.21954C11.6 9.17142 11.123 9.23008 10.6758 9.39133C10.2286 9.55249 9.82245 9.81231 9.48662 10.1519C9.1508 10.4914 8.89377 10.9023 8.73405 11.3547C8.57436 11.8071 8.51603 12.2897 8.56327 12.7678L8.54739 12.7517C8.59414 13.314 8.5191 13.8799 8.3275 14.4099C8.13588 14.9398 7.83232 15.4212 7.43799 15.8202C7.04364 16.2192 6.56802 16.5263 6.04429 16.7203C5.52056 16.9141 4.96134 16.9901 4.40562 16.9428L4.4215 16.9588C3.75667 16.8956 3.08875 17.0415 2.50887 17.3766C1.92898 17.7117 1.46535 18.2195 1.18122 18.8311C0.897085 19.4426 0.806277 20.1278 0.921182 20.7935C1.03609 21.4591 1.35113 22.0727 1.8233 22.5504C2.29548 23.0283 2.90182 23.347 3.55962 23.4633C4.21742 23.5795 4.89466 23.4877 5.49895 23.2002C6.10325 22.9127 6.60519 22.4436 6.9363 21.8568C7.26741 21.2699 7.41159 20.5941 7.34915 19.9213L7.36591 19.9374C7.319 19.375 7.39394 18.8091 7.58549 18.279C7.77704 17.749 8.0806 17.2677 8.47497 16.8686C8.86933 16.4695 9.34501 16.1623 9.86886 15.9686C10.3926 15.7747 10.9519 15.6988 11.5077 15.7463Z" fill="#737680"/>
<path d="M5.59415 13.9544C5.92858 13.6141 6.18463 13.2032 6.34401 12.7511C6.5034 12.2991 6.5622 11.8169 6.51621 11.3393L6.53298 11.3553C6.48603 10.7928 6.56099 10.2267 6.75265 9.6965C6.9443 9.16632 7.24803 8.68489 7.6426 8.28579C8.03717 7.88669 8.51308 7.57956 9.03707 7.38586C9.5611 7.19214 10.1206 7.11652 10.6765 7.16427L10.6597 7.14819C11.3243 7.2112 11.992 7.06523 12.5716 6.73019C13.1512 6.39517 13.6146 5.88737 13.8986 5.27608C14.1825 4.66478 14.2732 3.97973 14.1583 3.31435C14.0435 2.64896 13.7285 2.03564 13.2565 1.55802C12.7845 1.08039 12.1784 0.761714 11.5208 0.645443C10.8633 0.529172 10.1863 0.620967 9.58219 0.908311C8.97804 1.19565 8.47626 1.66455 8.14517 2.25107C7.81408 2.83759 7.66983 3.51318 7.7321 4.18569L7.71621 4.16962C7.76312 4.73199 7.68819 5.29794 7.49663 5.82798C7.30508 6.35802 7.00152 6.83936 6.60715 7.23844C6.21278 7.63751 5.73709 7.94468 5.21329 8.13851C4.68949 8.33234 4.1302 8.40817 3.57445 8.36069L3.59033 8.37677C3.0473 8.32749 2.50077 8.41771 2.00137 8.63907C1.50198 8.86043 1.06588 9.20578 0.733489 9.6431C0.401097 10.0803 0.183167 10.5955 0.0998949 11.1407C0.0166225 11.686 0.070701 12.2436 0.25712 12.762C0.443539 13.2805 0.756267 13.7429 1.16632 14.1065C1.57638 14.4702 2.0705 14.7231 2.60289 14.842C3.13528 14.9609 3.68871 14.9419 4.21192 14.7868C4.73512 14.6316 5.21116 14.3453 5.59591 13.9544H5.59415Z" fill="#737680"/>
<path d="M32.9268 5.04907H35.5473V17.9535H32.9268V5.04907Z" fill="#737680"/>
<path d="M37.0315 13.5349C37.0278 12.6076 37.2962 11.6999 37.8027 10.927C38.3092 10.1542 39.031 9.55077 39.8766 9.19327C40.7223 8.83585 41.6537 8.74041 42.553 8.91905C43.4523 9.09765 44.2789 9.54238 44.9283 10.1968C45.5776 10.8512 46.0203 11.6859 46.2005 12.5952C46.3807 13.5045 46.2901 14.4475 45.9402 15.3046C45.5904 16.1617 44.997 16.8945 44.2353 17.4101C43.4734 17.9257 42.5777 18.2009 41.6612 18.2009C41.0529 18.208 40.4492 18.0922 39.8856 17.8604C39.322 17.6286 38.8097 17.2855 38.3786 16.851C37.9475 16.4167 37.6064 15.8996 37.3751 15.3302C37.1438 14.7609 37.027 14.1505 37.0315 13.5349ZM43.6703 13.5349C43.6593 13.1351 43.5322 12.7476 43.3048 12.4205C43.0773 12.0935 42.7597 11.8416 42.3916 11.6963C42.0234 11.5509 41.6211 11.5186 41.2349 11.6034C40.8487 11.6883 40.4958 11.8863 40.2202 12.173C39.9447 12.4596 39.7587 12.8221 39.6857 13.2151C39.6126 13.6081 39.6557 14.0142 39.8095 14.3826C39.9633 14.7509 40.2209 15.0652 40.5502 15.2862C40.8796 15.5072 41.266 15.6251 41.6612 15.6251C41.9318 15.6324 42.201 15.5828 42.4518 15.4796C42.7026 15.3764 42.9296 15.2218 43.1183 15.0254C43.307 14.829 43.4536 14.5951 43.5485 14.3386C43.6436 14.0821 43.685 13.8085 43.6703 13.5349Z" fill="#737680"/>
<path d="M56.7353 9.11526V17.5081C56.7353 20.4778 54.4465 21.7331 52.1232 21.7331C51.3052 21.7951 50.4862 21.6278 49.7559 21.2499C49.0256 20.8719 48.4123 20.2977 47.9832 19.5903L50.2191 18.2822C50.3995 18.651 50.6868 18.9552 51.0427 19.1542C51.3986 19.3532 51.806 19.4374 52.2106 19.3956C52.4691 19.4319 52.7324 19.4088 52.9809 19.3282C53.2294 19.2476 53.4569 19.1115 53.6464 18.9299C53.836 18.7483 53.9827 18.526 54.0758 18.2792C54.169 18.0325 54.206 17.7678 54.1844 17.5045V16.6965C53.8775 17.0764 53.4869 17.3783 53.044 17.5778C52.6009 17.7774 52.1179 17.8691 51.6335 17.8456C50.481 17.8088 49.3879 17.3197 48.5854 16.4817C47.783 15.6437 47.3344 14.5228 47.3344 13.3559C47.3344 12.1891 47.783 11.068 48.5854 10.2301C49.3879 9.39204 50.481 8.90294 51.6335 8.86616C52.1179 8.84263 52.6009 8.93436 53.044 9.13392C53.4869 9.33347 53.8775 9.63535 54.1844 10.0153V9.11347L56.7353 9.11526ZM54.1853 13.3572C54.2029 12.9299 54.0937 12.507 53.8718 12.1429C53.6499 11.7788 53.3254 11.4903 52.94 11.3145C52.5547 11.1386 52.1261 11.0836 51.7096 11.1562C51.293 11.2289 50.9075 11.4261 50.6027 11.7224C50.2978 12.0186 50.0875 12.4004 49.9989 12.8186C49.9103 13.237 49.9473 13.6724 50.1054 14.0691C50.2634 14.4658 50.5352 14.8056 50.8856 15.0447C51.2362 15.2838 51.6493 15.4113 52.0721 15.4108C52.3474 15.4303 52.6237 15.3911 52.8832 15.296C53.1427 15.2008 53.3796 15.0517 53.5787 14.8582C53.7777 14.6647 53.9346 14.4312 54.0391 14.1727C54.1436 13.9142 54.1933 13.6364 54.1853 13.3572Z" fill="#737680"/>
<path d="M58.2194 13.5349C58.2158 12.6076 58.4841 11.6999 58.9907 10.927C59.4972 10.1542 60.2189 9.55077 61.0646 9.19327C61.9102 8.83585 62.8416 8.74041 63.7409 8.91905C64.6402 9.09765 65.4669 9.54238 66.1162 10.1968C66.7655 10.8512 67.2083 11.6859 67.3885 12.5952C67.5687 13.5045 67.478 14.4475 67.1282 15.3046C66.7783 16.1617 66.185 16.8945 65.4232 17.4101C64.6614 17.9257 63.7656 18.2009 62.8491 18.2009C62.2408 18.208 61.6371 18.0922 61.0736 17.8604C60.5099 17.6286 59.9976 17.2855 59.5666 16.851C59.1355 16.4167 58.7944 15.8996 58.5631 15.3302C58.3317 14.7609 58.2149 14.1505 58.2194 13.5349ZM64.8582 13.5349C64.8473 13.1351 64.7202 12.7476 64.4928 12.4205C64.2653 12.0935 63.9477 11.8416 63.5795 11.6963C63.2113 11.5509 62.809 11.5186 62.4229 11.6034C62.0367 11.6883 61.6837 11.8863 61.4082 12.173C61.1327 12.4596 60.9467 12.8221 60.8736 13.2151C60.8006 13.6081 60.8436 14.0142 60.9974 14.3826C61.1512 14.7509 61.4089 15.0652 61.7382 15.2862C62.0675 15.5072 62.4539 15.6251 62.8491 15.6251C63.1197 15.6324 63.389 15.5828 63.6398 15.4796C63.8906 15.3764 64.1175 15.2218 64.3062 15.0254C64.495 14.829 64.6415 14.5951 64.7365 14.3386C64.8315 14.0821 64.873 13.8085 64.8582 13.5349Z" fill="#737680"/>
<path d="M68.7009 6.74635C68.7009 6.43166 68.7931 6.12404 68.9658 5.86239C69.1387 5.60075 69.3842 5.39681 69.6715 5.27638C69.9588 5.15596 70.275 5.12445 70.58 5.18585C70.885 5.24724 71.1652 5.39878 71.3851 5.62129C71.605 5.8438 71.7547 6.1273 71.8154 6.43595C71.876 6.74458 71.845 7.06449 71.7259 7.35522C71.6069 7.64595 71.4054 7.89445 71.1468 8.06928C70.8882 8.24411 70.5842 8.33742 70.2732 8.33742C69.8575 8.33323 69.46 8.16426 69.166 7.86678C68.872 7.56929 68.705 7.16703 68.7009 6.74635ZM68.9656 9.11511H71.587V17.9544H68.962L68.9656 9.11511Z" fill="#737680"/>
<path d="M82.9023 13.5349C82.9326 14.1191 82.8485 14.7036 82.6547 15.2547C82.4611 15.8059 82.1615 16.3128 81.7735 16.7465C81.3855 17.1802 80.9166 17.5319 80.3938 17.7815C79.8709 18.0311 79.3045 18.1736 78.727 18.201C78.2414 18.2278 77.7559 18.1449 77.3059 17.9584C76.8558 17.7719 76.4524 17.4862 76.125 17.1224V21.4894H73.5044V9.11526H76.125V9.94561C76.4526 9.58204 76.8561 9.29677 77.3061 9.11035C77.7561 8.92396 78.2415 8.84117 78.727 8.86796C79.3046 8.89517 79.8712 9.03767 80.3942 9.28731C80.917 9.53695 81.3861 9.88874 81.7742 10.3225C82.1622 10.7562 82.4616 11.2634 82.6553 11.8147C82.8489 12.3661 82.9329 12.9506 82.9023 13.5349ZM80.2817 13.5349C80.2715 13.1212 80.1409 12.7198 79.9063 12.3809C79.6717 12.0419 79.3435 11.7805 78.9628 11.6294C78.5822 11.4782 78.1659 11.4441 77.7661 11.5311C77.3663 11.6182 77.0007 11.8228 76.7153 12.119C76.4297 12.4153 76.237 12.7902 76.161 13.1968C76.0849 13.6034 76.1292 14.0236 76.288 14.4049C76.447 14.7862 76.7134 15.1116 77.0542 15.3404C77.395 15.5692 77.7948 15.6912 78.2038 15.6911C78.4846 15.7038 78.7648 15.6562 79.0261 15.5517C79.2874 15.447 79.5239 15.2877 79.7201 15.0841C79.9164 14.8805 80.0678 14.6372 80.1646 14.3703C80.2614 14.1033 80.3013 13.8186 80.2817 13.5349Z" fill="#737680"/>
<path d="M90.9891 15.3018C90.9891 17.3349 89.2429 18.201 87.3565 18.201C86.5943 18.2708 85.8288 18.1077 85.1592 17.7327C84.4896 17.3577 83.9465 16.788 83.6003 16.0974L85.8706 14.7893C85.9624 15.1085 86.1597 15.3862 86.4295 15.576C86.6993 15.7659 87.0252 15.8562 87.3529 15.8322C87.9812 15.8322 88.2962 15.6376 88.2962 15.2849C88.2962 14.3117 83.9982 14.8251 83.9982 11.767C83.9982 9.83935 85.6059 8.8679 87.4226 8.8679C88.1056 8.84603 88.7815 9.00997 89.3806 9.34256C89.9797 9.67515 90.48 10.1643 90.8285 10.759L88.5926 11.9786C88.4947 11.7471 88.3315 11.5499 88.1233 11.4116C87.9153 11.2733 87.6715 11.2001 87.4226 11.201C86.9682 11.201 86.6885 11.3795 86.6885 11.6956C86.692 12.7036 90.9891 12.0313 90.9891 15.3018Z" fill="#737680"/>
<path d="M100.562 9.11523V17.9545H97.9412V17.1233C97.6385 17.4901 97.2547 17.7791 96.8206 17.9666C96.3865 18.1541 95.9153 18.2347 95.4441 18.2018C93.6794 18.2018 92.1794 16.9295 92.1794 14.5411V9.11523H94.8V14.1527C94.7779 14.3633 94.8018 14.576 94.8697 14.7764C94.9368 14.9768 95.0471 15.1597 95.1918 15.3127C95.3365 15.4657 95.5121 15.5849 95.7071 15.6621C95.9012 15.7393 96.1103 15.7727 96.3194 15.7599C97.2803 15.7599 97.9438 15.1947 97.9438 13.9393V9.11791L100.562 9.11523Z" fill="#737680"/>
<path d="M115.588 12.5268V17.9536H112.968V12.7562C112.968 11.8723 112.549 11.3071 111.71 11.3071C110.837 11.3071 110.347 11.9259 110.347 12.9687V17.9536H107.727V12.7562C107.727 11.8723 107.308 11.3071 106.469 11.3071C105.596 11.3071 105.107 11.9259 105.107 12.9687V17.9536H102.486V9.11428H105.107V9.92678C105.379 9.56633 105.735 9.28044 106.144 9.09535C106.553 8.91019 107.001 8.83167 107.448 8.86694C107.896 8.84474 108.342 8.94053 108.744 9.14481C109.144 9.34919 109.486 9.65517 109.736 10.033C110.026 9.63776 110.411 9.32348 110.854 9.11955C111.296 8.91564 111.784 8.82872 112.269 8.86694C114.274 8.86783 115.588 10.317 115.588 12.5268Z" fill="#737680"/>
<path d="M117.805 9.06072C118.879 9.06072 119.749 8.17967 119.749 7.09286C119.749 6.00604 118.879 5.125 117.805 5.125C116.731 5.125 115.86 6.00604 115.86 7.09286C115.86 8.17967 116.731 9.06072 117.805 9.06072Z" fill="#737680"/>
</svg>
