<svg width="120" height="24" viewBox="0 0 120 24" fill="none" xmlns="http://www.w3.org/2000/svg">
<path d="M38.522 19.3901C37.9172 19.4223 37.3189 19.2532 36.8237 18.9101C36.6168 18.7593 36.4503 18.5612 36.3387 18.333C36.2271 18.1047 36.1737 17.8532 36.1831 17.6001V8.33006C36.1781 8.29081 36.1823 8.25097 36.1954 8.21357C36.2085 8.17617 36.23 8.1422 36.2585 8.11424C36.2869 8.08627 36.3215 8.06506 36.3595 8.0522C36.3975 8.03935 36.438 8.0352 36.478 8.04006H38.1864C38.3797 8.04006 38.4712 8.14006 38.4712 8.33006V16.8801C38.4712 17.2601 38.6441 17.4501 39 17.4501C39.1508 17.4562 39.3018 17.4394 39.4475 17.4001C39.6508 17.4001 39.7627 17.4601 39.7729 17.6401L39.9254 18.8901C39.9327 18.9265 39.932 18.9641 39.9234 19.0003C39.9146 19.0364 39.8982 19.0703 39.8751 19.0997C39.852 19.1291 39.8227 19.1532 39.7893 19.1706C39.7559 19.1879 39.7191 19.1979 39.6814 19.2001C39.3071 19.3216 38.9161 19.3857 38.522 19.3901Z" fill="#737680"/>
<path d="M48.1322 18.32C47.2738 19.0175 46.1949 19.399 45.0813 19.399C43.9678 19.399 42.889 19.0175 42.0305 18.32C41.276 17.571 40.8527 16.5593 40.8527 15.505C40.8527 14.4507 41.276 13.439 42.0305 12.69C42.8906 11.9961 43.9688 11.6169 45.0813 11.6169C46.1939 11.6169 47.2721 11.9961 48.1322 12.69C48.8694 13.4459 49.2809 14.4527 49.2809 15.5C49.2809 16.5473 48.8694 17.5541 48.1322 18.31V18.32ZM43.6373 17C44.0357 17.3548 44.554 17.5514 45.0915 17.5514C45.6291 17.5514 46.1474 17.3548 46.5457 17C46.9064 16.5923 47.1049 16.0703 47.1049 15.53C47.1049 14.9897 46.9064 14.4676 46.5457 14.06C46.1474 13.7051 45.6291 13.5086 45.0915 13.5086C44.554 13.5086 44.0357 13.7051 43.6373 14.06C43.2768 14.4676 43.0782 14.9897 43.0782 15.53C43.0782 16.0703 43.2768 16.5923 43.6373 17Z" fill="#737680"/>
<path d="M58.6881 11.8699C58.8813 11.8699 58.9729 11.9699 58.9729 12.1599V19.3299C58.9907 19.8138 58.8985 20.2956 58.7033 20.7401C58.508 21.1847 58.2145 21.5809 57.844 21.8999C57.0217 22.5893 55.9643 22.9467 54.8847 22.8999C53.9096 22.9336 52.9475 22.6718 52.1288 22.1499C51.7792 21.9241 51.4805 21.6301 51.2513 21.286C51.0221 20.942 50.8674 20.5553 50.7966 20.1499C50.7966 19.9499 50.7966 19.8599 51.0712 19.8599H52.7796C52.8522 19.8623 52.9224 19.8853 52.982 19.9261C53.0415 19.9669 53.0878 20.0238 53.1152 20.0899C53.226 20.3936 53.4469 20.6464 53.7356 20.7999C54.0873 20.9784 54.4788 21.0677 54.8746 21.0599C55.1133 21.0728 55.3523 21.0387 55.5776 20.9597C55.8028 20.8807 56.0098 20.7584 56.1864 20.5999C56.3477 20.4341 56.4733 20.2378 56.5555 20.023C56.6375 19.8082 56.6747 19.5792 56.6644 19.3499V18.7199C56.0527 19.1623 55.3082 19.3911 54.5491 19.3699C54.0179 19.3889 53.4881 19.3021 52.9919 19.1148C52.4956 18.9275 52.0429 18.6435 51.661 18.2799C50.9278 17.534 50.5179 16.5373 50.5179 15.4999C50.5179 14.4625 50.9278 13.4658 51.661 12.7199C52.0447 12.3595 52.4979 12.0782 52.994 11.8928C53.49 11.7073 54.0188 11.6213 54.5491 11.6399C55.3301 11.6196 56.0946 11.8631 56.7152 12.3299V12.1699C56.7106 12.1316 56.7146 12.0927 56.7271 12.0561C56.7396 12.0195 56.7603 11.9862 56.7875 11.9584C56.8148 11.9306 56.848 11.9092 56.8848 11.8956C56.9215 11.882 56.9608 11.8767 57 11.8799L58.6881 11.8699ZM54.7424 17.5899C55.0043 17.5979 55.2649 17.5492 55.5057 17.4472C55.7464 17.3453 55.9615 17.1926 56.1356 16.9999C56.4736 16.5706 56.6571 16.0429 56.6571 15.4999C56.6571 14.9569 56.4736 14.4292 56.1356 13.9999C55.9621 13.8098 55.7483 13.6594 55.5093 13.5592C55.2705 13.459 55.0121 13.4115 54.7525 13.4199C54.4875 13.4117 54.2238 13.4602 53.9797 13.5621C53.7357 13.664 53.517 13.8168 53.339 14.0099C52.9644 14.4206 52.7674 14.9587 52.7898 15.5099C52.7714 16.0557 52.964 16.5881 53.3288 16.9999C53.5073 17.1925 53.726 17.3449 53.97 17.4468C54.2139 17.5486 54.4774 17.5974 54.7424 17.5899Z" fill="#737680"/>
<path d="M67.7492 18.3201C66.889 19.014 65.8109 19.3932 64.6983 19.3932C63.5858 19.3932 62.5076 19.014 61.6475 18.3201C60.9097 17.5625 60.4978 16.554 60.4978 15.5051C60.4978 14.4561 60.9097 13.4477 61.6475 12.6901C62.5084 11.998 63.5863 11.6199 64.6983 11.6199C65.8103 11.6199 66.8882 11.998 67.7492 12.6901C68.4864 13.446 68.8979 14.4528 68.8979 15.5001C68.8979 16.5474 68.4864 17.5542 67.7492 18.3101V18.3201ZM63.2441 17.0001C63.439 17.1825 63.6689 17.325 63.9202 17.4194C64.1716 17.5138 64.4395 17.5582 64.7085 17.5501C64.9757 17.5569 65.2418 17.5118 65.4913 17.4175C65.7408 17.3231 65.969 17.1813 66.1627 17.0001C66.5174 16.5897 66.7122 16.0687 66.7122 15.5301C66.7122 14.9915 66.5174 14.4705 66.1627 14.0601C65.969 13.8789 65.7408 13.7371 65.4913 13.6427C65.2418 13.5484 64.9757 13.5033 64.7085 13.5101C64.4395 13.5019 64.1716 13.5464 63.9202 13.6408C63.6689 13.7352 63.439 13.8777 63.2441 14.0601C62.8894 14.4705 62.6946 14.9915 62.6946 15.5301C62.6946 16.0687 62.8894 16.5897 63.2441 17.0001Z" fill="#737680"/>
<path d="M72.5695 10.1701C72.3007 10.4015 71.9556 10.529 71.5983 10.529C71.2411 10.529 70.896 10.4015 70.6271 10.1701C70.5053 10.057 70.4082 9.92063 70.3418 9.76931C70.2755 9.61799 70.2412 9.45493 70.2412 9.29014C70.2412 9.12534 70.2755 8.96228 70.3418 8.81096C70.4082 8.65964 70.5053 8.52324 70.6271 8.41014C70.8988 8.18455 71.2428 8.06079 71.5983 8.06079C71.9539 8.06079 72.2979 8.18455 72.5695 8.41014C72.6914 8.52324 72.7885 8.65964 72.8549 8.81096C72.9213 8.96228 72.9554 9.12534 72.9554 9.29014C72.9554 9.45493 72.9213 9.61799 72.8549 9.76931C72.7885 9.92063 72.6914 10.057 72.5695 10.1701ZM72.7831 19.3901C72.1786 19.4193 71.5813 19.2505 71.0848 18.9101C70.881 18.7571 70.7174 18.5583 70.6078 18.3304C70.4981 18.1025 70.4454 17.8521 70.4543 17.6001V12.1601C70.4494 12.1209 70.4535 12.081 70.4667 12.0436C70.4797 12.0062 70.5012 11.9723 70.5297 11.9443C70.5582 11.9163 70.5927 11.8951 70.6307 11.8823C70.6687 11.8694 70.7093 11.8653 70.7492 11.8701H72.4576C72.6509 11.8701 72.7424 11.9701 72.7424 12.1601V16.8801C72.7424 17.2601 72.9153 17.4501 73.261 17.4501C73.4153 17.4556 73.5695 17.4387 73.7187 17.4001C73.9221 17.4001 74.0339 17.4601 74.0441 17.6401L74.1966 18.8901C74.204 18.9266 74.2032 18.9641 74.1946 19.0003C74.186 19.0364 74.1695 19.0703 74.1463 19.0997C74.1232 19.1291 74.0939 19.1533 74.0606 19.1706C74.0271 19.1879 73.9903 19.198 73.9526 19.2001C73.5751 19.3224 73.1806 19.3865 72.7831 19.3901Z" fill="#737680"/>
<path d="M80.4813 11.63C81.0149 11.6093 81.5474 11.6942 82.047 11.8797C82.5467 12.0652 83.0033 12.3476 83.3898 12.71C84.1089 13.4689 84.5088 14.4677 84.5088 15.505C84.5088 16.5423 84.1089 17.5411 83.3898 18.3C83.0052 18.6656 82.5491 18.9508 82.0492 19.1381C81.5492 19.3255 81.0158 19.4112 80.4813 19.39C79.7197 19.4067 78.9735 19.1784 78.3559 18.74V22.35C78.3559 22.54 78.2542 22.63 78.061 22.63H76.3525C76.3136 22.6372 76.2734 22.6349 76.2355 22.6233C76.1976 22.6118 76.1632 22.5914 76.1351 22.5638C76.107 22.5362 76.0863 22.5023 76.0746 22.4651C76.0628 22.4278 76.0605 22.3883 76.0678 22.35V14.15C76.0798 14.0698 76.0725 13.988 76.0465 13.911C76.0207 13.8341 75.9768 13.7641 75.9185 13.7068C75.8602 13.6495 75.7891 13.6064 75.7108 13.5809C75.6325 13.5554 75.5493 13.5482 75.4678 13.56H75.1322C74.9085 13.56 74.7966 13.48 74.7966 13.32V12.14C74.7913 12.067 74.8116 11.9944 74.8543 11.9344C74.8968 11.8743 74.959 11.8304 75.0305 11.81C75.3823 11.6843 75.7546 11.6233 76.1288 11.63C76.502 11.5975 76.8766 11.6753 77.2045 11.8535C77.5324 12.0317 77.7988 12.302 77.9695 12.63C78.297 12.3042 78.6888 12.0474 79.1207 11.8755C79.5525 11.7036 80.0155 11.62 80.4813 11.63ZM78.8949 17C79.0762 17.1864 79.2941 17.3347 79.5353 17.436C79.7764 17.5373 80.036 17.5895 80.2983 17.5895C80.5606 17.5895 80.8201 17.5373 81.0613 17.436C81.3025 17.3347 81.5204 17.1864 81.7017 17C82.0836 16.5811 82.2843 16.0322 82.261 15.47C82.2876 14.9073 82.0865 14.3572 81.7017 13.94C81.5204 13.7537 81.3025 13.6054 81.0613 13.504C80.8201 13.4027 80.5606 13.3505 80.2983 13.3505C80.036 13.3505 79.7764 13.4027 79.5353 13.504C79.2941 13.6054 79.0762 13.7537 78.8949 13.94C78.5248 14.3646 78.3322 14.9113 78.3559 15.47C78.3353 16.0283 78.5275 16.5739 78.8949 17Z" fill="#737680"/>
<path d="M89.3085 19.3899C88.3956 19.4268 87.4903 19.2121 86.6949 18.7699C86.3757 18.5809 86.104 18.3236 85.8998 18.0172C85.6956 17.7108 85.5641 17.3631 85.5153 16.9999C85.5153 16.7999 85.5864 16.6999 85.8102 16.6999H87.3051C87.3762 16.7026 87.4451 16.7246 87.5043 16.7634C87.5636 16.8023 87.6108 16.8564 87.6407 16.9199C87.8542 17.4599 88.4136 17.7299 89.3085 17.7299C89.6206 17.7439 89.9315 17.6821 90.2136 17.5499C90.3109 17.5067 90.3945 17.4383 90.4554 17.352C90.5163 17.2657 90.5522 17.1647 90.5593 17.0599C90.5593 16.7999 90.3966 16.6199 90.0712 16.4999C89.6852 16.3736 89.2861 16.2897 88.8814 16.2499C88.4018 16.1965 87.9262 16.113 87.4576 15.9999C87.0018 15.8985 86.5874 15.6651 86.2678 15.3299C86.0796 15.1021 85.941 14.8386 85.8607 14.5559C85.7805 14.2732 85.7601 13.9772 85.8012 13.6865C85.8422 13.3957 85.9436 13.1163 86.0991 12.8658C86.2546 12.6152 86.4608 12.3988 86.7051 12.2299C87.438 11.7708 88.298 11.5471 89.1661 11.5899C90.0064 11.562 90.838 11.7664 91.5661 12.1799C91.8595 12.3434 92.1122 12.5691 92.3057 12.8407C92.4993 13.1123 92.6287 13.4229 92.6848 13.7499C92.6848 13.9499 92.5932 14.0499 92.4102 14.0499H90.9051C90.8417 14.0536 90.7787 14.0384 90.7243 14.0063C90.6698 13.9742 90.6264 13.9266 90.6 13.8699C90.4994 13.6331 90.3101 13.4433 90.0712 13.3399C89.8017 13.2013 89.5007 13.1324 89.1966 13.1399C88.8984 13.124 88.6011 13.1825 88.3322 13.3099C88.2374 13.3459 88.1558 13.4089 88.0978 13.4909C88.0397 13.5729 88.0081 13.67 88.0068 13.7699C88.0133 13.9067 88.0641 14.0378 88.152 14.144C88.2399 14.2501 88.3601 14.3258 88.4949 14.3599C88.8854 14.5046 89.2914 14.6053 89.7051 14.6599C90.1807 14.7215 90.6526 14.8082 91.1187 14.9199C91.5743 15.0214 91.9889 15.2547 92.3085 15.5899C92.4794 15.7746 92.6115 15.9907 92.6971 16.2259C92.7826 16.461 92.8199 16.7105 92.8068 16.9599C92.8155 17.3056 92.733 17.6476 92.5673 17.9526C92.4015 18.2575 92.1582 18.515 91.861 18.6999C91.1012 19.1796 90.2108 19.4202 89.3085 19.3899Z" fill="#737680"/>
<path d="M103.556 18.8901C103.562 18.9256 103.56 18.9619 103.552 18.9968C103.543 19.0317 103.527 19.0646 103.505 19.0935C103.484 19.1223 103.456 19.1467 103.425 19.165C103.393 19.1833 103.359 19.1952 103.322 19.2001C102.951 19.3193 102.563 19.3833 102.173 19.3901C101.786 19.4295 101.396 19.37 101.04 19.2176C100.683 19.0652 100.373 18.825 100.139 18.5201C99.4206 19.1274 98.4918 19.439 97.5458 19.3901C97.1065 19.41 96.6678 19.3393 96.258 19.1826C95.8482 19.0259 95.4763 18.7866 95.1661 18.4801C94.8581 18.159 94.6191 17.78 94.4636 17.3659C94.3081 16.9517 94.2392 16.511 94.261 16.0701V12.1601C94.261 11.9701 94.3526 11.8701 94.5458 11.8701H96.2543C96.4475 11.8701 96.539 11.9701 96.539 12.1601V15.7701C96.5204 16.2199 96.6768 16.6597 96.9763 17.0001C97.1258 17.156 97.3075 17.2787 97.5092 17.3597C97.7109 17.4408 97.928 17.4785 98.1458 17.4701C98.3686 17.4797 98.5912 17.4457 98.8007 17.3702C99.0102 17.2947 99.2023 17.1791 99.3661 17.0301C99.5211 16.8731 99.6416 16.6864 99.7203 16.4817C99.799 16.2771 99.8342 16.0587 99.8237 15.8401V12.1601C99.8237 11.9701 99.9153 11.8701 100.108 11.8701H101.837C102.031 11.8701 102.122 11.9701 102.122 12.1601V16.8701C102.122 17.2601 102.295 17.4501 102.631 17.4501C102.788 17.4561 102.946 17.4392 103.098 17.4001C103.137 17.3895 103.177 17.3876 103.216 17.3945C103.256 17.4015 103.293 17.4171 103.325 17.4402C103.358 17.4633 103.384 17.4932 103.402 17.5279C103.422 17.5625 103.432 17.6009 103.434 17.6401L103.556 18.8901Z" fill="#737680"/>
<path d="M119.715 18.8901C119.724 18.9259 119.725 18.9632 119.718 18.9994C119.71 19.0356 119.695 19.0698 119.673 19.0994C119.65 19.129 119.622 19.1534 119.588 19.1708C119.556 19.1882 119.519 19.1982 119.481 19.2001C119.103 19.321 118.709 19.385 118.312 19.3901C117.707 19.4208 117.11 19.2518 116.614 18.9101C116.399 18.7637 116.225 18.5676 116.106 18.3391C115.987 18.1105 115.927 17.8567 115.932 17.6001V15.2501C115.954 14.8017 115.801 14.362 115.505 14.0201C115.363 13.8638 115.186 13.7406 114.989 13.6593C114.792 13.578 114.58 13.5407 114.366 13.5501C114.174 13.543 113.983 13.5788 113.806 13.6551C113.63 13.7313 113.473 13.8458 113.349 13.9901C113.081 14.3252 112.943 14.7439 112.963 15.1701V18.8601C112.963 19.0501 112.871 19.1501 112.678 19.1501H110.959C110.92 19.155 110.879 19.1508 110.84 19.138C110.803 19.1251 110.768 19.1039 110.74 19.0759C110.711 19.048 110.69 19.014 110.677 18.9766C110.663 18.9392 110.659 18.8993 110.664 18.8601V15.2501C110.687 14.8066 110.545 14.37 110.268 14.0201C110.144 13.8731 109.988 13.7548 109.812 13.6736C109.637 13.5923 109.445 13.5502 109.251 13.5501C109.043 13.5419 108.837 13.5768 108.644 13.6526C108.45 13.7285 108.277 13.8435 108.132 13.9901C107.841 14.3145 107.692 14.7382 107.715 15.1701V18.8601C107.72 18.8993 107.716 18.9392 107.703 18.9766C107.69 19.014 107.668 19.048 107.64 19.0759C107.612 19.1039 107.577 19.1251 107.538 19.138C107.501 19.1508 107.46 19.155 107.42 19.1501H105.763C105.569 19.1501 105.478 19.0501 105.478 18.8601V14.1501C105.49 14.0699 105.483 13.9881 105.457 13.9111C105.431 13.8341 105.387 13.7642 105.328 13.7069C105.27 13.6496 105.199 13.6065 105.121 13.581C105.043 13.5555 104.959 13.5483 104.878 13.5601H104.542C104.319 13.5601 104.207 13.4801 104.207 13.3201V12.1401C104.202 12.0671 104.222 11.9945 104.265 11.9344C104.307 11.8744 104.369 11.8305 104.441 11.8101C104.793 11.6844 105.165 11.6233 105.539 11.6301C105.898 11.6 106.259 11.6704 106.579 11.8332C106.9 11.996 107.166 12.2445 107.349 12.5501C107.692 12.2303 108.099 11.9836 108.543 11.8253C108.987 11.667 109.46 11.6006 109.932 11.6301C110.391 11.6081 110.847 11.6926 111.266 11.8768C111.684 12.061 112.054 12.3396 112.342 12.6901C112.679 12.3304 113.093 12.0487 113.554 11.8654C114.014 11.6821 114.51 11.6017 115.007 11.6301C115.45 11.6097 115.894 11.68 116.308 11.8366C116.723 11.9933 117.101 12.2328 117.417 12.5401C117.726 12.8606 117.965 13.2395 118.121 13.6537C118.276 14.068 118.345 14.5091 118.322 14.9501V16.8801C118.322 17.2601 118.495 17.4501 118.82 17.4501C118.978 17.4573 119.136 17.4405 119.288 17.4001C119.499 17.4001 119.61 17.4801 119.624 17.6401L119.715 18.8901Z" fill="#737680"/>
<path d="M0.467792 10.57C1.21807 7.60469 2.95568 4.97144 5.40396 3.08954C7.85225 1.20764 10.8705 0.185303 13.978 0.185303C17.0855 0.185303 20.1037 1.20764 22.552 3.08954C25.0003 4.97144 26.7378 7.60469 27.4881 10.57H26.2678C24.2092 10.5402 22.1928 11.1452 20.5017 12.3C20.4041 12.3695 20.3022 12.433 20.1966 12.49H20.0542C19.9487 12.433 19.8468 12.3695 19.7492 12.3C18.0431 11.1719 16.0338 10.5694 13.978 10.5694C11.9221 10.5694 9.91282 11.1719 8.20678 12.3C8.10918 12.3695 8.00729 12.433 7.90169 12.49H7.75932C7.65372 12.433 7.55183 12.3695 7.45423 12.3C5.76318 11.1452 3.74676 10.5402 1.68813 10.57H0.467792ZM24.0712 16.84C24.6976 16.3603 25.4741 16.1093 26.2678 16.13H27.9051V12.92H26.2678C24.8697 12.9034 23.5036 13.3313 22.3729 14.14C21.7366 14.6013 20.9668 14.8502 20.1763 14.8502C19.3857 14.8502 18.616 14.6013 17.9797 14.14C16.8202 13.3464 15.4415 12.921 14.0288 12.921C12.6162 12.921 11.2374 13.3464 10.078 14.14C9.44166 14.6013 8.67189 14.8502 7.88135 14.8502C7.09082 14.8502 6.32105 14.6013 5.68474 14.14C4.54007 13.321 3.15436 12.8925 1.73898 12.92H0.0508423V16.13H1.68813C2.48187 16.1093 3.25829 16.3603 3.88474 16.84C5.04204 17.6342 6.41927 18.06 7.83051 18.06C9.24173 18.06 10.619 17.6342 11.7763 16.84C12.4035 16.3618 13.1794 16.111 13.9729 16.13C14.7668 16.1076 15.5439 16.3588 16.1695 16.84C17.3289 17.6337 18.7077 18.0591 20.1203 18.0591C21.533 18.0591 22.9118 17.6337 24.0712 16.84ZM24.0712 22.58C24.6976 22.1003 25.4741 21.8493 26.2678 21.87H27.9051V18.66H26.2678C24.8697 18.6434 23.5036 19.0713 22.3729 19.88C21.7366 20.3413 20.9668 20.5902 20.1763 20.5902C19.3857 20.5902 18.616 20.3413 17.9797 19.88C16.8202 19.0864 15.4415 18.661 14.0288 18.661C12.6162 18.661 11.2374 19.0864 10.078 19.88C9.44166 20.3413 8.67189 20.5902 7.88135 20.5902C7.09082 20.5902 6.32105 20.3413 5.68474 19.88C4.54007 19.061 3.15436 18.6325 1.73898 18.66H0.0508423V21.87H1.68813C2.48187 21.8493 3.25829 22.1003 3.88474 22.58C5.04204 23.3742 6.41927 23.8 7.83051 23.8C9.24173 23.8 10.619 23.3742 11.7763 22.58C12.4035 22.1018 13.1794 21.851 13.9729 21.87C14.7668 21.8476 15.5439 22.0988 16.1695 22.58C17.3289 23.3737 18.7077 23.7991 20.1203 23.7991C21.533 23.7991 22.9118 23.3737 24.0712 22.58Z" fill="#737680"/>
</svg>
