<svg width="105" height="32" viewBox="0 0 105 32" fill="none" xmlns="http://www.w3.org/2000/svg">
<path d="M20 0H12C5.37258 0 0 5.37258 0 12V20C0 26.6274 5.37258 32 12 32H20C26.6274 32 32 26.6274 32 20V12C32 5.37258 26.6274 0 20 0Z" fill="#CF6F49"/>
<path d="M41.36 23.0001V9.0001H46.5C47.62 9.0001 48.54 9.19343 49.26 9.5801C49.9933 9.95343 50.54 10.4668 50.9 11.1201C51.26 11.7601 51.44 12.4734 51.44 13.2601C51.44 14.1134 51.2133 14.8934 50.76 15.6001C50.32 16.3068 49.6267 16.8201 48.68 17.1401L51.58 23.0001H48.64L46.04 17.4801H43.92V23.0001H41.36ZM43.92 15.6001H46.34C47.1933 15.6001 47.82 15.3934 48.22 14.9801C48.62 14.5668 48.82 14.0201 48.82 13.3401C48.82 12.6734 48.62 12.1401 48.22 11.7401C47.8333 11.3401 47.2 11.1401 46.32 11.1401H43.92V15.6001ZM57.9755 23.2401C56.9755 23.2401 56.0888 23.0268 55.3155 22.6001C54.5421 22.1734 53.9355 21.5734 53.4955 20.8001C53.0555 20.0268 52.8355 19.1334 52.8355 18.1201C52.8355 17.0934 53.0488 16.1801 53.4755 15.3801C53.9155 14.5801 54.5155 13.9601 55.2755 13.5201C56.0488 13.0668 56.9555 12.8401 57.9955 12.8401C58.9688 12.8401 59.8288 13.0534 60.5755 13.4801C61.3221 13.9068 61.9021 14.4934 62.3155 15.2401C62.7421 15.9734 62.9555 16.7934 62.9555 17.7001C62.9555 17.8468 62.9488 18.0001 62.9355 18.1601C62.9355 18.3201 62.9288 18.4868 62.9155 18.6601H55.3755C55.4288 19.4334 55.6955 20.0401 56.1755 20.4801C56.6688 20.9201 57.2621 21.1401 57.9555 21.1401C58.4755 21.1401 58.9088 21.0268 59.2555 20.8001C59.6155 20.5601 59.8821 20.2534 60.0555 19.8801H62.6555C62.4688 20.5068 62.1555 21.0801 61.7155 21.6001C61.2888 22.1068 60.7555 22.5068 60.1155 22.8001C59.4888 23.0934 58.7755 23.2401 57.9755 23.2401ZM57.9955 14.9201C57.3688 14.9201 56.8155 15.1001 56.3355 15.4601C55.8555 15.8068 55.5488 16.3401 55.4155 17.0601H60.3555C60.3155 16.4068 60.0755 15.8868 59.6355 15.5001C59.1955 15.1134 58.6488 14.9201 57.9955 14.9201ZM68.5286 23.2401C67.6753 23.2401 66.9753 23.1068 66.4286 22.8401C65.8819 22.5601 65.4753 22.1934 65.2086 21.7401C64.9419 21.2868 64.8086 20.7868 64.8086 20.2401C64.8086 19.3201 65.1686 18.5734 65.8886 18.0001C66.6086 17.4268 67.6886 17.1401 69.1286 17.1401H71.6486V16.9001C71.6486 16.2201 71.4553 15.7201 71.0686 15.4001C70.6819 15.0801 70.2019 14.9201 69.6286 14.9201C69.1086 14.9201 68.6553 15.0468 68.2686 15.3001C67.8819 15.5401 67.6419 15.9001 67.5486 16.3801H65.0486C65.1153 15.6601 65.3553 15.0334 65.7686 14.5001C66.1953 13.9668 66.7419 13.5601 67.4086 13.2801C68.0753 12.9868 68.8219 12.8401 69.6486 12.8401C71.0619 12.8401 72.1753 13.1934 72.9886 13.9001C73.8019 14.6068 74.2086 15.6068 74.2086 16.9001V23.0001H72.0286L71.7886 21.4001C71.4953 21.9334 71.0819 22.3734 70.5486 22.7201C70.0286 23.0668 69.3553 23.2401 68.5286 23.2401ZM69.1086 21.2401C69.8419 21.2401 70.4086 21.0001 70.8086 20.5201C71.2219 20.0401 71.4819 19.4468 71.5886 18.7401H69.4086C68.7286 18.7401 68.2419 18.8668 67.9486 19.1201C67.6553 19.3601 67.5086 19.6601 67.5086 20.0201C67.5086 20.4068 67.6553 20.7068 67.9486 20.9201C68.2419 21.1334 68.6286 21.2401 69.1086 21.2401ZM76.6516 23.0001V8.6001H79.2116V23.0001H76.6516ZM86.6873 23.2401C85.674 23.2401 84.7807 23.0201 84.0073 22.5801C83.234 22.1401 82.6207 21.5268 82.1673 20.7401C81.7273 19.9534 81.5073 19.0534 81.5073 18.0401C81.5073 17.0268 81.7273 16.1268 82.1673 15.3401C82.6207 14.5534 83.234 13.9401 84.0073 13.5001C84.7807 13.0601 85.674 12.8401 86.6873 12.8401C87.954 12.8401 89.0207 13.1734 89.8873 13.8401C90.754 14.4934 91.3073 15.4001 91.5473 16.5601H88.8473C88.714 16.0801 88.4473 15.7068 88.0473 15.4401C87.6607 15.1601 87.2007 15.0201 86.6673 15.0201C85.9607 15.0201 85.3607 15.2868 84.8673 15.8201C84.374 16.3534 84.1273 17.0934 84.1273 18.0401C84.1273 18.9868 84.374 19.7268 84.8673 20.2601C85.3607 20.7934 85.9607 21.0601 86.6673 21.0601C87.2007 21.0601 87.6607 20.9268 88.0473 20.6601C88.4473 20.3934 88.714 20.0134 88.8473 19.5201H91.5473C91.3073 20.6401 90.754 21.5401 89.8873 22.2201C89.0207 22.9001 87.954 23.2401 86.6873 23.2401ZM98.5795 23.2401C97.6195 23.2401 96.7529 23.0201 95.9795 22.5801C95.2195 22.1401 94.6129 21.5334 94.1595 20.7601C93.7195 19.9734 93.4995 19.0668 93.4995 18.0401C93.4995 17.0134 93.7262 16.1134 94.1795 15.3401C94.6329 14.5534 95.2395 13.9401 95.9995 13.5001C96.7729 13.0601 97.6395 12.8401 98.5995 12.8401C99.5462 12.8401 100.4 13.0601 101.16 13.5001C101.933 13.9401 102.54 14.5534 102.98 15.3401C103.433 16.1134 103.66 17.0134 103.66 18.0401C103.66 19.0668 103.433 19.9734 102.98 20.7601C102.54 21.5334 101.933 22.1401 101.16 22.5801C100.386 23.0201 99.5262 23.2401 98.5795 23.2401ZM98.5795 21.0201C99.2462 21.0201 99.8262 20.7734 100.32 20.2801C100.813 19.7734 101.06 19.0268 101.06 18.0401C101.06 17.0534 100.813 16.3134 100.32 15.8201C99.8262 15.3134 99.2529 15.0601 98.5995 15.0601C97.9195 15.0601 97.3329 15.3134 96.8395 15.8201C96.3595 16.3134 96.1195 17.0534 96.1195 18.0401C96.1195 19.0268 96.3595 19.7734 96.8395 20.2801C97.3329 20.7734 97.9129 21.0201 98.5795 21.0201Z" fill="#2A2C1F"/>
</svg>
